# xmcd
# Track frame offsets:
# 150
# 12949
# 25870
# 38704
# 51402
# 64624
# 78368
# 91845
# 103197
# 115929
# 129402
# 140580
# 153862
# 168258
# 180426
# 192170
# 204934
# 217065
# 230304
# 242035
# 253095
# 267322
# 277580
# 288374
# 298829
# 311361
# 325331
# 341779
#
# Disc length: 4785 seconds
# Revision: 0
# Processed by: cddbd v1.5.2PL0 Copyright (c) Steve Scherf et al.
# Submitted via: VisiTrax 2.10.1.251 - For more info visit www.synapsa.com
#
DISCID=8e12af1c
DTITLE=Various Artist - Country Music Classics - Capitol Records from the 1940s
DYEAR=2001
DGENRE=American Misc
TTITLE0=Tex Ritter - I've Got Spurs that Jingle Jangle Jingle
TTITLE1=Foy Willing - Texas Blues
TTITLE2=Tex Ritter - I'm Wasting My Tears On You
TTITLE3=Jack Guthrie - Oklahoma Hills
TTITLE4=Wesley Tuttle - With Tears In My Eyes
TTITLE5=Merle Travis - Divorce Me C O D
TTITLE6=Merle Travis - So Round, So Firm, So Fully Packed
TTITLE7=Jack Guthrie and the Oklahomans - Oakie Boogie
TTITLE8=Cliffie Stone - Silver Stars, Purple Sage, Eyes of Blue
TTITLE9=Tex Williams - Smoke, Smoke, Smoke that Cigarette
TTITLE10=Hank Thompson - Humpty Dumpty Heart
TTITLE11=Cliffie Stone - Peeping Through the Keyhole
TTITLE12=Tex Ritter - Rye Whiskey
TTITLE13=Red Ingle and the Natural Seven - Cigareets and Whiskey and Wild, Wil
TTITLE13=d Women
TTITLE14=Roy Hogsed - Cocaine Blues
TTITLE15=Jimmy Wakely - One Has My Name, The Other Has My Heart
TTITLE16=Jack Rivers - Dear Oakie
TTITLE17=Tex Williams - LIfe Gets Teejus, Don't It
TTITLE18=Eddie Kirk and the String Band - Candy Kisses
TTITLE19=Tennessee Ernie Ford - Tennessee Border
TTITLE20=Tommy Duncan - Gamblin' Polka Dot Blues
TTITLE21=Margaret Whiting and Jimmy Wakely - Slippin' Around
TTITLE22=Hank Thompson - Whoa Sailor
TTITLE23=Ann Jones - Give Me A Hundred Reasons
TTITLE24=Leon Payne - I Love You Because
TTITLE25=Tennessee Ernie Ford - Mule Train
TTITLE26=Those Darned Accordions - Devil Went Down To Georgia, The
TTITLE27=Basin Brothers - Jump the Fence
EXTD=
EXTT0=
EXTT1=
EXTT2=
EXTT3=
EXTT4=
EXTT5=
EXTT6=
EXTT7=
EXTT8=
EXTT9=
EXTT10=
EXTT11=
EXTT12=
EXTT13=
EXTT14=
EXTT15=
EXTT16=
EXTT17=
EXTT18=
EXTT19=
EXTT20=
EXTT21=
EXTT22=
EXTT23=
EXTT24=
EXTT25=
EXTT26=
EXTT27=
PLAYORDER=
